<?xml version="1.0" encoding="UTF-8" standalone="no"?><!-- Generator: Gravit.io --><svg xmlns="http://www.w3.org/2000/svg" xmlns:xlink="http://www.w3.org/1999/xlink" style="isolation:isolate" viewBox="0 0 24 24" width="24pt" height="24pt"><defs><clipPath id="_clipPath_irvuPoaL8oU5Tdz7aMHO0r6DIoX3keCu"><rect width="24" height="24"/></clipPath></defs><g clip-path="url(#_clipPath_irvuPoaL8oU5Tdz7aMHO0r6DIoX3keCu)"><path d=" M 4.71 19.29 C 3.171 17.751 3.171 15.249 4.71 13.71 L 8.31 10.11 L 6.6 8.4 L 3 12 C 0.516 14.484 0.516 18.516 3 21 C 5.484 23.484 9.516 23.484 12 21 L 15.6 17.4 L 13.89 15.69 L 10.29 19.29 C 8.751 20.829 6.249 20.829 4.71 19.29 Z  M 9.3 16.5 L 16.5 9.3 L 14.7 7.5 L 7.5 14.7 L 9.3 16.5 Z  M 12 3 L 8.4 6.6 L 10.11 8.31 L 13.71 4.71 C 15.249 3.171 17.751 3.171 19.29 4.71 C 20.829 6.249 20.829 8.751 19.29 10.29 L 15.69 13.89 L 17.4 15.6 L 21 12 C 23.484 9.516 23.484 5.484 21 3 C 18.516 0.516 14.484 0.516 12 3 Z " fill="rgb(0,0,0)"/></g></svg>