<svg id="ec1363kcrwgj1" xmlns="http://www.w3.org/2000/svg" xmlns:xlink="http://www.w3.org/1999/xlink" viewBox="0 0 126.256000 147.086000" shape-rendering="geometricPrecision" text-rendering="geometricPrecision"><style><![CDATA[#ec1363kcrwgj3_to {animation: ec1363kcrwgj3_to__to 3000ms linear infinite alternate-reverse forwards}@keyframes ec1363kcrwgj3_to__to { 0% {offset-distance: 0%} 6.666667% {offset-distance: 33.333333%} 20% {offset-distance: 66.666667%} 33.333333% {offset-distance: 100%} 100% {offset-distance: 100%} }#ec1363kcrwgj3_ts {animation: ec1363kcrwgj3_ts__ts 3000ms linear infinite alternate-reverse forwards}@keyframes ec1363kcrwgj3_ts__ts { 0% {transform: scale(1,1)} 100% {transform: scale(0.946475,0.962171)} }]]></style><path id="ec1363kcrwgj2" d="M65.175000,3Q97.252000,3.314000,112.710000,20.247000Q124.595000,32.900000,123.086000,58.948000Q121.967000,68.346000,117.618000,74.512000L111.308000,85.590000Q102.025000,99.303000,102.053000,122.328000Q102.074000,123.326000,102.327000,124.533000L102.614000,127.375000L104.256000,140.086000L76.256000,138.086000L54.659000,143.080000C53.439000,144.016000,51.792000,144.153000,50.312000,144.062000L50.312000,144.062000L48.769000,141.086000Q46.462000,134.199000,46.806000,129.899000Q45.916000,120.974000,39.655000,117.420000Q38.767000,116.765000,36.851000,117.139000Q33.532000,118.308000,28.718000,117.981000Q21.637000,116.929000,18.201000,112.232000Q15.794000,109.731000,15.958000,104.660000Q16.530000,100.582000,14.415000,99.191000Q12.943000,97.859000,13.434000,94.564000L13.714000,93.442000C11.688000,92.100000,11.328000,89.516000,11.471000,87.272000L11.471000,87.272000L12.312000,83.907000Q7.106000,84.065000,4.740000,81.383000Q2.684000,79.794000,3.058000,75.774000Q4.565000,69.990000,8.807000,66.940000Q14.359000,57.770000,15.397000,44.085000Q17.773000,25.988000,28.998000,16.742000Q41.912000,4.696000,65.175000,3Z" transform="matrix(1 0 0 1 -0.00022270000001 0.00007090000001)" fill="none" stroke="rgb(0,0,0)" stroke-width="1" stroke-linecap="round" stroke-linejoin="round" stroke-miterlimit="3"/><g id="ec1363kcrwgj3_to" style="offset-path:path('M17.385675,32.863418C14.936715,32.968047,30.395721,11.806634,36.481986,11.546606Q57.041735,3.260099,63.128000,3.000071Q76.138045,3.260099,82.224310,3.000071');offset-rotate:0deg"><g id="ec1363kcrwgj3_ts" transform="scale(0.946475,0.962171)"><path id="ec1363kcrwgj3" d="M115.301000,50.652000Q116.066000,56.144000,115.863000,58.390000C115.381000,63.746000,114.176000,66.830000,112.494000,69.583000C111.928000,70.675000,111.303000,71.707000,110.618000,72.679000C109.757000,74.393000,108.894000,76.033000,108.025000,77.597000C106.798000,79.804000,105.561000,81.859000,104.308000,83.756000C103.746000,84.711000,103.210000,85.676000,102.700000,86.653000C97.894000,96.763000,95.373000,108.071000,95.053000,120.494000Q95.017000,121.552000,95.264000,123.035000L95.614000,125.542000Q95.967000,128.273000,96.272000,130.638000C96.583000,133.043000,96.857000,135.164000,97.095000,137.003000M74.625000,21.375000C74.625000,21.375000,64.625000,15.375000,58.875000,14.875000C53.125000,14.375000,45.875000,12.125000,54.669000,25.193000C63.462000,38.262000,83.095000,37.453000,85.326000,36.871000C87.681000,36.258000,95.023000,34.974000,97.014000,37.709000C105.959000,49.999000,82.853000,54.301000,74.930000,49.225000C65.544000,43.212000,37.094000,39.018000,41.063000,52.162000C46.201000,69.180000,81.266000,57.708000,92.749000,58.486000C104.225000,59.264000,104.998000,64.900000,102.459000,69.108000C99.112000,74.658000,93.053000,77.848000,86.617000,80.501000C83.847000,81.643000,77.067000,83.504000,74.134000,80.747000C71.213000,78.002000,71.583000,73.076000,71.918000,71.179000C74.616000,55.869000,87.681000,59.469000,100.223000,53.533000C112.775000,47.591000,108.706000,32.539000,96.200000,32.786000C77.798000,33.148000,82.438000,53.932000,76.223000,62.416000C65.957000,76.429000,56.393000,58.645000,42.390000,55.073000C36.538000,53.580000,33.968000,65.789000,32.433000,63.680000C26.251000,55.187000,23.025000,39.001000,28.855000,31.042000C32.777000,25.689000,38.710000,30.419000,40.619000,33.614000C45.278000,41.411000,44.053000,49.440000,46.455000,57.396000C47.624000,61.267000,47.969000,64.417000,51.511000,65.974000C55.079000,67.541000,59.352000,64.085000,60.825000,61.919000C68.813000,50.172000,62.147000,34.422000,65.440000,21.510000C67.633000,12.912000,75.511000,17.744000,77.744000,19.932000C83.204000,25.282000,76.975000,37.314000,85.196000,39.411000C85.196000,39.411000,88.597000,40.278000,88.597000,40.278000C95.366000,40.858000,99.683000,40.817000,103.891000,41.178000C103.891000,41.178000,112.123000,45.422000,112.123000,45.422000C117.468000,39.071000,107.659000,29.408000,105.875000,23.500000C104.741000,19.745000,98.563000,18.383000,95.907000,17.706000C70.385000,11.196000,69.996000,36.160000,57.822000,45.290000C53.574000,48.476000,45.560000,35.125000,44.916000,32.995000C42.857000,26.175000,48.787000,16.514000,57.303000,25.008000C57.778000,25.481000,58.070000,26.061000,58.453000,26.587000C64.108000,34.356000,56.906000,52.297000,55.789000,59.348000C55.399000,61.806000,54.782000,64.836000,55.296000,67.368000C56.412000,72.874000,61.031000,73.727000,63.781000,74.677000C76.377000,79.025000,84.107000,66.542000,96.246000,67.095000C102.787000,67.393000,105.040000,73.350000,107.476000,65.672000C109.013000,60.826000,114.539000,38.818000,102.864000,45.203000C93.569000,50.288000,90.750000,53.537000,87.891000,57.247000C82.679000,64.007000,77.093000,85.361000,63.007000,81.768000C58.954000,80.734000,55.954000,79.669000,52.907000,78.763000C44.797000,76.350000,32.342000,65.782000,46.400000,61.669000C49.729000,60.695000,53.523000,61.419000,56.938000,60.927000C68.977000,59.194000,71.424000,76.662000,80.916000,76.475000C85.593000,76.383000,91.763000,75.234000,95.677000,73.381000C105.479000,68.741000,108.705000,73.320000,112.081000,63.846000C112.949000,61.410000,114.368000,58.938000,115.004000,56.445000C120.201000,36.070000,80.447000,34.881000,68.293000,34.671000C49.564000,34.346000,44.949000,46.949000,32.625000,48.724000C26.206000,49.648000,28.743000,31.062000,32.209000,28.039000C46.498000,15.576000,61.254000,21.288000,74.541000,26.404000C80.635000,28.750000,106.112000,35.095000,104.898000,30.747000C104.836000,30.526000,104.645000,30.261000,104.500000,30C103.239000,27.729000,102.094000,25.387000,99.875000,24C97.656000,22.613000,93.742000,19.615000,90.614000,18.489000C88.103000,17.586000,85.010000,16.923000,85.375000,16.750000" transform="translate(-60.375106,-31.805925)" fill="none" fill-rule="evenodd" stroke="rgb(232,130,74)" stroke-width="1" stroke-linecap="square" stroke-miterlimit="3"/></g></g></svg>