<svg xmlns="http://www.w3.org/2000/svg" xmlns:xlink="http://www.w3.org/1999/xlink" style="isolation:isolate" viewBox="0 0 126.256 147.086">

<path id="silhouette" d=" M 65.175 3 Q 97.252 3.314 112.71 20.247 Q 124.595 32.9 123.086 58.948 Q 121.967 68.346 117.618 74.512 L 111.308 85.59 Q 102.025 99.303 102.053 122.328 Q 102.074 123.326 102.327 124.533 L 102.614 127.375 L 104.256 140.086 L 76.256 138.086 L 54.659 143.08 C 53.439 144.016 51.792 144.153 50.312 144.062 L 50.312 144.062 L 48.769 141.086 Q 46.462 134.199 46.806 129.899 Q 45.916 120.974 39.655 117.42 Q 38.767 116.765 36.851 117.139 Q 33.532 118.308 28.718 117.981 Q 21.637 116.929 18.201 112.232 Q 15.794 109.731 15.958 104.66 Q 16.53 100.582 14.415 99.191 Q 12.943 97.859 13.434 94.564 L 13.714 93.442 C 11.688 92.1 11.328 89.516 11.471 87.272 L 11.471 87.272 L 12.312 83.907 Q 7.106 84.065 4.74 81.383 Q 2.684 79.794 3.058 75.774 Q 4.565 69.99 8.807 66.94 Q 14.359 57.77 15.397 44.085 Q 17.773 25.988 28.998 16.742 Q 41.912 4.696 65.175 3 Z " fill="none" vector-effect="non-scaling-stroke" stroke-width="1" stroke="rgb(255,153,0)" stroke-opacity="100" stroke-linejoin="miter" stroke-linecap="square" stroke-miterlimit="3"/>

<path id="brain" d=" M 115.301 50.652 Q 116.066 56.144 115.863 58.39 C 115.381 63.746 114.176 66.83 112.494 69.583 C 111.928 70.675 111.303 71.707 110.618 72.679 C 109.757 74.393 108.894 76.033 108.025 77.597 C 106.798 79.804 105.561 81.859 104.308 83.756 C 103.746 84.711 103.21 85.676 102.7 86.653 C 97.894 96.763 95.373 108.071 95.053 120.494 Q 95.017 121.552 95.264 123.035 L 95.614 125.542 Q 95.967 128.273 96.272 130.638 C 96.583 133.043 96.857 135.164 97.095 137.003 M 74.625 21.375 C 74.625 21.375 64.625 15.375 58.875 14.875 C 53.125 14.375 45.875 12.125 54.669 25.193 C 63.462 38.262 83.095 37.453 85.326 36.871 C 87.681 36.258 95.023 34.974 97.014 37.709 C 105.959 49.999 82.853 54.301 74.93 49.225 C 65.544 43.212 37.094 39.018 41.063 52.162 C 46.201 69.18 81.266 57.708 92.749 58.486 C 104.225 59.264 104.998 64.9 102.459 69.108 C 99.112 74.658 93.053 77.848 86.617 80.501 C 83.847 81.643 77.067 83.504 74.134 80.747 C 71.213 78.002 71.583 73.076 71.918 71.179 C 74.616 55.869 87.681 59.469 100.223 53.533 C 112.775 47.591 108.706 32.539 96.2 32.786 C 77.798 33.148 82.438 53.932 76.223 62.416 C 65.957 76.429 56.393 58.645 42.39 55.073 C 36.538 53.58 33.968 65.789 32.433 63.68 C 26.251 55.187 23.025 39.001 28.855 31.042 C 32.777 25.689 38.71 30.419 40.619 33.614 C 45.278 41.411 44.053 49.44 46.455 57.396 C 47.624 61.267 47.969 64.417 51.511 65.974 C 55.079 67.541 59.352 64.085 60.825 61.919 C 68.813 50.172 62.147 34.422 65.44 21.51 C 67.633 12.912 75.511 17.744 77.744 19.932 C 83.204 25.282 76.975 37.314 85.196 39.411 C 85.196 39.411 88.597 40.278 88.597 40.278 C 95.366 40.858 99.683 40.817 103.891 41.178 C 103.891 41.178 112.123 45.422 112.123 45.422 C 117.468 39.071 107.659 29.408 105.875 23.5 C 104.741 19.745 98.563 18.383 95.907 17.706 C 70.385 11.196 69.996 36.16 57.822 45.29 C 53.574 48.476 45.56 35.125 44.916 32.995 C 42.857 26.175 48.787 16.514 57.303 25.008 C 57.778 25.481 58.07 26.061 58.453 26.587 C 64.108 34.356 56.906 52.297 55.789 59.348 C 55.399 61.806 54.782 64.836 55.296 67.368 C 56.412 72.874 61.031 73.727 63.781 74.677 C 76.377 79.025 84.107 66.542 96.246 67.095 C 102.787 67.393 105.04 73.35 107.476 65.672 C 109.013 60.826 114.539 38.818 102.864 45.203 C 93.569 50.288 90.75 53.537 87.891 57.247 C 82.679 64.007 77.093 85.361 63.007 81.768 C 58.954 80.734 55.954 79.669 52.907 78.763 C 44.797 76.35 32.342 65.782 46.4 61.669 C 49.729 60.695 53.523 61.419 56.938 60.927 C 68.977 59.194 71.424 76.662 80.916 76.475 C 85.593 76.383 91.763 75.234 95.677 73.381 C 105.479 68.741 108.705 73.32 112.081 63.846 C 112.949 61.41 114.368 58.938 115.004 56.445 C 120.201 36.07 80.447 34.881 68.293 34.671 C 49.564 34.346 44.949 46.949 32.625 48.724 C 26.206 49.648 28.743 31.062 32.209 28.039 C 46.498 15.576 61.254 21.288 74.541 26.404 C 80.635 28.75 106.112 35.095 104.898 30.747 C 104.836 30.526 104.645 30.261 104.5 30 C 103.239 27.729 102.094 25.387 99.875 24 C 97.656 22.613 93.742 19.615 90.614 18.489 C 88.103 17.586 85.01 16.923 85.375 16.75" fill-rule="evenodd" fill="none" vector-effect="non-scaling-stroke" stroke-width="1" stroke="rgb(74,134,232)" stroke-opacity="100" stroke-linejoin="miter" stroke-linecap="square" stroke-miterlimit="3"/></svg>