<svg xmlns="http://www.w3.org/2000/svg" xmlns:xlink="http://www.w3.org/1999/xlink" style="isolation:isolate" viewBox="0 0 130 45">

<path class="web-name__rg" d=" M 30.754 0.878 C 32.882 0.878 34.45 1.286 35.458 2.102 C 36.482 2.902 36.994 4.118 36.994 5.75 C 36.994 6.662 36.826 7.422 36.49 8.03 C 36.154 8.638 35.722 9.126 35.194 9.494 C 34.682 9.846 34.138 10.126 33.562 10.334 L 38.266 18.014 L 35.746 18.014 L 31.594 10.934 L 28.186 10.934 L 28.186 18.014 L 26.026 18.014 L 26.026 0.878 L 30.754 0.878 Z  M 30.634 2.75 L 28.186 2.75 L 28.186 9.11 L 30.754 9.11 C 32.146 9.11 33.162 8.838 33.802 8.294 C 34.442 7.734 34.762 6.918 34.762 5.846 C 34.762 4.726 34.426 3.934 33.754 3.47 C 33.082 2.99 32.042 2.75 30.634 2.75 Z  M 8.918 34.966 L 14.846 34.966 L 14.846 43.366 C 13.918 43.67 12.982 43.894 12.038 44.038 C 11.094 44.182 10.022 44.254 8.822 44.254 C 7.046 44.254 5.55 43.902 4.334 43.198 C 3.118 42.478 2.19 41.462 1.55 40.15 C 0.926 38.822 0.614 37.254 0.614 35.446 C 0.614 33.654 0.966 32.102 1.67 30.79 C 2.374 29.478 3.382 28.462 4.694 27.742 C 6.022 27.006 7.622 26.638 9.494 26.638 C 10.454 26.638 11.358 26.726 12.206 26.902 C 13.07 27.078 13.87 27.326 14.606 27.646 L 13.79 29.518 C 13.182 29.246 12.494 29.014 11.726 28.822 C 10.974 28.63 10.19 28.534 9.374 28.534 C 7.326 28.534 5.726 29.15 4.574 30.382 C 3.438 31.614 2.87 33.302 2.87 35.446 C 2.87 36.806 3.086 38.014 3.518 39.07 C 3.966 40.11 4.662 40.926 5.606 41.518 C 6.55 42.094 7.79 42.382 9.326 42.382 C 10.078 42.382 10.718 42.342 11.246 42.262 C 11.774 42.182 12.254 42.086 12.686 41.974 L 12.686 36.886 L 8.918 36.886 L 8.918 34.966 Z " fill="rgb(255,123,0)"/>

<path class="web-name__ogerallart" d=" M 57.108 9.422 C 57.108 11.198 56.804 12.75 56.196 14.078 C 55.604 15.39 54.724 16.414 53.556 17.15 C 52.388 17.886 50.94 18.254 49.212 18.254 C 47.436 18.254 45.956 17.886 44.772 17.15 C 43.604 16.414 42.732 15.382 42.156 14.054 C 41.58 12.726 41.292 11.174 41.292 9.398 C 41.292 7.638 41.58 6.102 42.156 4.79 C 42.732 3.478 43.604 2.454 44.772 1.718 C 45.956 0.982 47.444 0.614 49.236 0.614 C 50.948 0.614 52.388 0.982 53.556 1.718 C 54.724 2.438 55.604 3.462 56.196 4.79 C 56.804 6.102 57.108 7.646 57.108 9.422 Z  M 43.572 9.422 C 43.572 11.582 44.028 13.286 44.94 14.534 C 45.852 15.766 47.276 16.382 49.212 16.382 C 51.164 16.382 52.588 15.766 53.484 14.534 C 54.38 13.286 54.828 11.582 54.828 9.422 C 54.828 7.262 54.38 5.574 53.484 4.358 C 52.588 3.126 51.172 2.51 49.236 2.51 C 47.3 2.51 45.868 3.126 44.94 4.358 C 44.028 5.574 43.572 7.262 43.572 9.422 Z  M 69.546 8.966 L 75.474 8.966 L 75.474 17.366 C 74.546 17.67 73.61 17.894 72.666 18.038 C 71.722 18.182 70.65 18.254 69.45 18.254 C 67.674 18.254 66.178 17.902 64.962 17.198 C 63.746 16.478 62.818 15.462 62.178 14.15 C 61.554 12.822 61.242 11.254 61.242 9.446 C 61.242 7.654 61.594 6.102 62.298 4.79 C 63.002 3.478 64.01 2.462 65.322 1.742 C 66.65 1.006 68.25 0.638 70.122 0.638 C 71.082 0.638 71.986 0.726 72.834 0.902 C 73.698 1.078 74.498 1.326 75.234 1.646 L 74.418 3.518 C 73.81 3.246 73.122 3.014 72.354 2.822 C 71.602 2.63 70.818 2.534 70.002 2.534 C 67.954 2.534 66.354 3.15 65.202 4.382 C 64.066 5.614 63.498 7.302 63.498 9.446 C 63.498 10.806 63.714 12.014 64.146 13.07 C 64.594 14.11 65.29 14.926 66.234 15.518 C 67.178 16.094 68.418 16.382 69.954 16.382 C 70.706 16.382 71.346 16.342 71.874 16.262 C 72.402 16.182 72.882 16.086 73.314 15.974 L 73.314 10.886 L 69.546 10.886 L 69.546 8.966 Z  M 90.342 18.014 L 80.767 18.014 L 80.767 0.878 L 90.342 0.878 L 90.342 2.774 L 82.927 2.774 L 82.927 8.126 L 89.91 8.126 L 89.91 9.998 L 82.927 9.998 L 82.927 16.118 L 90.342 16.118 L 90.342 18.014 Z  M 100.03 0.878 C 102.158 0.878 103.726 1.286 104.734 2.102 C 105.758 2.902 106.27 4.118 106.27 5.75 C 106.27 6.662 106.102 7.422 105.766 8.03 C 105.43 8.638 104.998 9.126 104.47 9.494 C 103.958 9.846 103.414 10.126 102.838 10.334 L 107.542 18.014 L 105.022 18.014 L 100.87 10.934 L 97.462 10.934 L 97.462 18.014 L 95.302 18.014 L 95.302 0.878 L 100.03 0.878 Z  M 99.91 2.75 L 97.462 2.75 L 97.462 9.11 L 100.03 9.11 C 101.422 9.11 102.438 8.838 103.078 8.294 C 103.718 7.734 104.038 6.918 104.038 5.846 C 104.038 4.726 103.702 3.934 103.03 3.47 C 102.358 2.99 101.318 2.75 99.91 2.75 Z  M 30.891 44.014 L 28.827 38.71 L 22.035 38.71 L 19.995 44.014 L 17.811 44.014 L 24.507 26.806 L 26.451 26.806 L 33.123 44.014 L 30.891 44.014 Z  M 28.179 36.79 L 26.259 31.606 C 26.211 31.478 26.131 31.246 26.019 30.91 C 25.907 30.574 25.795 30.23 25.683 29.878 C 25.587 29.51 25.507 29.23 25.443 29.038 C 25.331 29.534 25.203 30.022 25.059 30.502 C 24.915 30.966 24.795 31.334 24.699 31.606 L 22.755 36.79 L 28.179 36.79 Z  M 36.667 44.014 L 36.667 26.878 L 38.827 26.878 L 38.827 42.094 L 46.315 42.094 L 46.315 44.014 L 36.667 44.014 Z  M 50.453 44.014 L 50.453 26.878 L 52.613 26.878 L 52.613 42.094 L 60.101 42.094 L 60.101 44.014 L 50.453 44.014 Z  M 74.991 44.014 L 72.927 38.71 L 66.135 38.71 L 64.095 44.014 L 61.911 44.014 L 68.607 26.806 L 70.551 26.806 L 77.223 44.014 L 74.991 44.014 Z  M 72.279 36.79 L 70.359 31.606 C 70.311 31.478 70.231 31.246 70.119 30.91 C 70.007 30.574 69.895 30.23 69.783 29.878 C 69.687 29.51 69.607 29.23 69.543 29.038 C 69.431 29.534 69.303 30.022 69.159 30.502 C 69.015 30.966 68.895 31.334 68.799 31.606 L 66.855 36.79 L 72.279 36.79 Z  M 85.495 26.878 C 87.623 26.878 89.191 27.286 90.198 28.102 C 91.222 28.902 91.734 30.118 91.734 31.75 C 91.734 32.662 91.566 33.422 91.23 34.03 C 90.894 34.638 90.462 35.126 89.934 35.494 C 89.423 35.846 88.879 36.126 88.303 36.334 L 93.006 44.014 L 90.486 44.014 L 86.335 36.934 L 82.927 36.934 L 82.927 44.014 L 80.767 44.014 L 80.767 26.878 L 85.495 26.878 Z  M 85.375 28.75 L 82.927 28.75 L 82.927 35.11 L 85.495 35.11 C 86.887 35.11 87.903 34.838 88.543 34.294 C 89.183 33.734 89.502 32.918 89.502 31.846 C 89.502 30.726 89.167 29.934 88.495 29.47 C 87.823 28.99 86.783 28.75 85.375 28.75 Z  M 102.32 44.014 L 100.16 44.014 L 100.16 28.774 L 94.808 28.774 L 94.808 26.878 L 107.648 26.878 L 107.648 28.774 L 102.32 28.774 L 102.32 44.014 Z " fill="rgb(255,255,255)"/>

<path class="web-name__dot" d=" M 114.855 0.614 C 115.447 0.614 115.863 0.758 116.103 1.046 C 116.343 1.334 116.463 1.678 116.463 2.078 C 116.463 2.494 116.343 2.846 116.103 3.134 C 115.863 3.438 115.447 3.59 114.855 3.59 C 114.279 3.59 113.863 3.438 113.607 3.134 C 113.351 2.846 113.223 2.494 113.223 2.078 C 113.223 1.678 113.351 1.334 113.607 1.046 C 113.863 0.758 114.279 0.614 114.855 0.614 Z " fill="rgb(255,255,255)"/>

<path class="web-name__net" d=" M 126.567 13.327 C 126.567 14.863 126.191 16.023 125.439 16.807 C 124.703 17.591 123.503 17.983 121.839 17.983 L 113.463 17.983 L 113.463 15.895 L 121.695 15.895 C 123.759 15.895 124.791 14.935 124.791 13.015 C 124.791 11.591 124.391 10.607 123.591 10.063 C 122.791 9.519 121.639 9.247 120.135 9.247 L 113.463 9.247 L 113.463 7.135 L 126.327 7.135 L 126.327 8.839 L 124.575 9.151 L 124.575 9.271 C 125.247 9.687 125.743 10.263 126.063 10.999 C 126.399 11.735 126.567 12.511 126.567 13.327 Z  M 126.567 28.139 C 126.567 29.243 126.327 30.187 125.847 30.971 C 125.367 31.771 124.687 32.379 123.807 32.795 C 122.943 33.227 121.927 33.443 120.759 33.443 L 119.487 33.443 L 119.487 24.635 C 118.031 24.667 116.919 25.035 116.151 25.739 C 115.399 26.459 115.023 27.459 115.023 28.739 C 115.023 29.555 115.095 30.275 115.239 30.899 C 115.399 31.539 115.623 32.195 115.911 32.867 L 114.063 32.867 C 113.775 32.211 113.567 31.563 113.439 30.923 C 113.295 30.283 113.223 29.523 113.223 28.643 C 113.223 27.427 113.471 26.347 113.967 25.403 C 114.463 24.475 115.199 23.747 116.175 23.219 C 117.167 22.707 118.375 22.451 119.799 22.451 C 121.207 22.451 122.415 22.683 123.423 23.147 C 124.431 23.627 125.207 24.291 125.751 25.139 C 126.295 26.003 126.567 27.003 126.567 28.139 Z  M 124.839 28.115 C 124.839 27.107 124.511 26.307 123.855 25.715 C 123.215 25.139 122.319 24.795 121.167 24.683 L 121.167 31.235 C 122.255 31.219 123.135 30.963 123.807 30.467 C 124.495 29.971 124.839 29.187 124.839 28.115 Z  M 114.951 42.214 C 114.951 42.534 114.975 42.862 115.023 43.198 C 115.087 43.534 115.151 43.806 115.215 44.014 L 113.607 44.014 C 113.495 43.79 113.407 43.47 113.343 43.054 C 113.263 42.638 113.223 42.238 113.223 41.854 C 113.223 41.182 113.335 40.558 113.559 39.982 C 113.799 39.422 114.207 38.966 114.783 38.614 C 115.359 38.262 116.167 38.086 117.207 38.086 L 124.695 38.086 L 124.695 36.262 L 125.703 36.262 L 126.543 38.11 L 129.279 38.95 L 129.279 40.198 L 126.327 40.198 L 126.327 43.918 L 124.695 43.918 L 124.695 40.198 L 117.255 40.198 C 116.471 40.198 115.887 40.382 115.503 40.75 C 115.135 41.134 114.951 41.622 114.951 42.214 Z " fill="rgb(0,132,255)"/>
</svg>